<svg width="83" height="19" viewBox="0 0 83 19" fill="none" xmlns="http://www.w3.org/2000/svg">
<path d="M11.768 14V6.956H8.24V5.36H16.88V6.956H13.364V14H11.768ZM19.3735 14C18.9175 14 18.5255 13.84 18.1975 13.52C17.8775 13.192 17.7175 12.8 17.7175 12.344V8.696C17.7175 8.24 17.8775 7.852 18.1975 7.532C18.5255 7.204 18.9175 7.04 19.3735 7.04H23.1295C23.5855 7.04 23.9735 7.204 24.2935 7.532C24.6215 7.852 24.7855 8.24 24.7855 8.696V11.312H19.2895V12.008C19.2895 12.232 19.3015 12.36 19.3255 12.392C19.3575 12.416 19.4855 12.428 19.7095 12.428H24.7855V14H19.3735ZM19.2895 9.896H23.2135V9.032C23.2135 8.808 23.1975 8.684 23.1655 8.66C23.1415 8.628 23.0175 8.612 22.7935 8.612H19.7095C19.4855 8.612 19.3575 8.628 19.3255 8.66C19.3015 8.684 19.2895 8.808 19.2895 9.032V9.896ZM27.4008 14C26.9448 14 26.5528 13.84 26.2248 13.52C25.9048 13.192 25.7448 12.8 25.7448 12.344V8.696C25.7448 8.24 25.9048 7.852 26.2248 7.532C26.5528 7.204 26.9448 7.04 27.4008 7.04H32.8008V8.612H27.7368C27.5128 8.612 27.3848 8.628 27.3528 8.66C27.3288 8.684 27.3168 8.808 27.3168 9.032V12.008C27.3168 12.232 27.3288 12.36 27.3528 12.392C27.3848 12.416 27.5128 12.428 27.7368 12.428H32.8128V14H27.4008ZM33.8199 14V4.76H35.3919V7.04H39.2319C39.6799 7.04 40.0679 7.204 40.3959 7.532C40.7239 7.852 40.8879 8.24 40.8879 8.696V14H39.3159V9.032C39.3159 8.808 39.2999 8.684 39.2679 8.66C39.2439 8.628 39.1199 8.612 38.8959 8.612H35.8119C35.5879 8.612 35.4599 8.628 35.4279 8.66C35.4039 8.684 35.3919 8.808 35.3919 9.032V14H33.8199Z" fill="black"/>
<path d="M48.442 14.2364C48.058 14.4823 47.6394 14.5556 47.1863 14.4563C46.7332 14.3569 46.3837 14.1153 46.1378 13.7313L43.2774 9.26465C43.0315 8.88065 42.9582 8.46209 43.0576 8.00899C43.1569 7.55589 43.3986 7.20638 43.7826 6.96046L48.2391 4.10656C48.6298 3.85633 49.0517 3.78088 49.5049 3.88021C49.958 3.97955 50.3075 4.22121 50.5534 4.60522L50.9158 5.17113L49.5717 6.03183L49.397 5.75898C49.2762 5.57035 49.1959 5.47455 49.156 5.4716C49.1118 5.46191 48.9987 5.5153 48.8168 5.63179L44.9262 8.12329C44.7376 8.24409 44.6384 8.32659 44.6287 8.3708C44.6215 8.40395 44.6782 8.51485 44.799 8.70348L47.2841 12.584C47.4049 12.7726 47.484 12.8739 47.5215 12.8879C47.5614 12.8909 47.6756 12.832 47.8643 12.7112L51.7549 10.2197C51.9368 10.1032 52.0347 10.0262 52.0487 9.98874C52.0584 9.94454 52.0029 9.82812 51.8821 9.63948L51.1896 8.5582L49.5424 9.61304L48.6817 8.26901L51.6729 6.35347L53.4137 9.07184C53.6597 9.45585 53.733 9.8744 53.6336 10.3275C53.5343 10.7806 53.2893 11.1323 52.8985 11.3825L48.442 14.2364Z" fill="#EB5757"/>
<path d="M57.292 14C56.836 14 56.444 13.84 56.116 13.52C55.796 13.192 55.636 12.8 55.636 12.344V7.04H57.208V12.008C57.208 12.232 57.22 12.36 57.244 12.392C57.276 12.416 57.404 12.428 57.628 12.428H60.712C60.936 12.428 61.06 12.416 61.084 12.392C61.116 12.36 61.132 12.232 61.132 12.008V7.04H62.704V12.344C62.704 12.8 62.54 13.192 62.212 13.52C61.892 13.84 61.504 14 61.048 14H57.292ZM63.9678 14V7.04H65.5398V14H63.9678ZM63.9678 6.344V4.76H65.5398V6.344H63.9678ZM68.1 14C67.644 14 67.252 13.84 66.924 13.52C66.604 13.192 66.444 12.8 66.444 12.344V8.696C66.444 8.24 66.604 7.852 66.924 7.532C67.252 7.204 67.644 7.04 68.1 7.04H71.952V4.76H73.524V14H68.1ZM68.448 12.428H71.532C71.748 12.428 71.872 12.416 71.904 12.392C71.936 12.36 71.952 12.232 71.952 12.008V9.032C71.952 8.808 71.936 8.684 71.904 8.66C71.872 8.628 71.748 8.612 71.532 8.612H68.448C68.224 8.612 68.096 8.628 68.064 8.66C68.04 8.684 68.028 8.808 68.028 9.032V12.008C68.028 12.232 68.04 12.36 68.064 12.392C68.096 12.416 68.224 12.428 68.448 12.428ZM76.1703 14C75.7143 14 75.3223 13.84 74.9943 13.52C74.6743 13.192 74.5143 12.8 74.5143 12.344V8.696C74.5143 8.24 74.6743 7.852 74.9943 7.532C75.3223 7.204 75.7143 7.04 76.1703 7.04H79.9263C80.3823 7.04 80.7703 7.204 81.0903 7.532C81.4183 7.852 81.5823 8.24 81.5823 8.696V11.312H76.0863V12.008C76.0863 12.232 76.0983 12.36 76.1223 12.392C76.1543 12.416 76.2823 12.428 76.5063 12.428H81.5823V14H76.1703ZM76.0863 9.896H80.0103V9.032C80.0103 8.808 79.9943 8.684 79.9623 8.66C79.9383 8.628 79.8143 8.612 79.5903 8.612H76.5063C76.2823 8.612 76.1543 8.628 76.1223 8.66C76.0983 8.684 76.0863 8.808 76.0863 9.032V9.896Z" fill="black"/>
<path opacity="0.5" fill-rule="evenodd" clip-rule="evenodd" d="M2 1H18C18.5523 1 19 1.44772 19 2V2.83333H20V2C20 0.895431 19.1046 0 18 0H2C0.895431 0 0 0.89543 0 2V15C0 16.1046 0.895431 17 2 17H8V16H2C1.44772 16 1 15.5523 1 15V2C1 1.44772 1.44772 1 2 1Z" fill="#EB5757"/>
</svg>
